<svg width="96" height="66" viewBox="0 0 96 66" fill="none" xmlns="http://www.w3.org/2000/svg">
<path d="M32.6713 20.3006C32.6713 21.9244 31.8564 23.6693 30.8113 24.8296C30.6961 24.9447 29.651 25.6415 29.651 25.7596V31.6821C29.651 35.1689 29.651 38.6527 29.7661 42.2547V46.5534C29.7661 47.0169 30.2326 47.8318 30.4629 48.1801C30.77 48.7469 31.1194 49.2897 31.508 49.804L31.6261 49.922L31.7413 50.0372L31.3929 50.6277C30.3477 50.0372 28.9542 49.8128 27.2123 49.8128C26.1671 49.8128 23.3742 49.6977 22.9136 50.9761C22.6036 51.8234 23.6546 52.532 24.1743 53.0103C24.8504 53.6362 25.5324 54.2709 26.1671 54.9382C27.4898 56.3229 28.4877 57.9526 28.4877 59.9218C28.4926 60.6384 28.351 61.3484 28.0718 62.0084C27.7926 62.6684 27.3816 63.2644 26.8639 63.7599C25.9339 64.6899 24.4223 65.7351 23.0258 65.7351C22.2877 65.7683 21.559 65.5592 20.9508 65.1397C20.3426 64.7202 19.8882 64.1133 19.6571 63.4116C20.5871 63.0632 21.6322 62.4815 21.9806 61.5515C22.156 61.0747 22.2159 60.5631 22.1553 60.0586C22.0948 59.5541 21.9155 59.0712 21.6322 58.6493C21.0369 57.6498 20.5311 56.5996 20.1206 55.5109C19.6571 54.3506 19.3087 53.0723 19.5301 51.7939C19.7604 50.4003 21.2721 49.3552 21.2721 47.9558V27.162C20.6816 27.162 19.9937 26.8136 19.0637 26.232C18.0185 25.5352 16.9734 24.7233 16.9734 24.7233L13.4895 27.3805V44.1058C13.7361 44.1312 13.9741 44.2109 14.1863 44.3391C16.0434 45.2691 17.4339 46.081 18.9485 47.5867L11.5144 54.3241C11.6295 54.2089 7.44891 51.1886 7.08576 50.9554C6.15576 50.4918 4.99251 50.0254 3.94736 50.0254C3.39874 50.0382 2.8536 50.1165 2.32354 50.2586C1.73306 50.3737 0.115144 50.8491 0 50.8491C0.696767 47.9439 2.43868 45.8536 5.11061 44.6904V11.0035C5.11061 9.95834 4.64413 8.34632 3.59898 6.12316C5.19104 6.09512 6.7651 5.7811 8.24606 5.1961C9.94215 4.39296 11.5738 3.4602 13.1264 2.4061C13.2415 2.4061 13.8231 1.81563 14.8683 1.01257L15.4588 1.24579C15.3407 1.59417 15.2255 1.94257 15.1104 2.29095C14.5199 4.03287 13.9471 5.65966 13.7139 7.40157C13.5224 8.9042 13.4454 10.4192 13.4836 11.9335V23.5482L23.5897 15.872C23.4745 15.9901 24.8681 18.0804 24.9832 18.1955C25.5153 19.0237 26.285 19.672 27.1916 20.0556C29.1638 20.8675 31.0297 19.5891 32.6506 18.5439L32.6713 20.3006Z" fill="white"/>
<path d="M52.0806 45.9512C52.5567 45.9039 53.0159 45.7494 53.4239 45.4995C55.095 44.4986 54.9857 43.0312 54.9857 41.3248V9.49493C54.0557 9.99389 52.7744 10.3984 52.5028 11.5616C52.4434 11.8529 52.4196 12.1503 52.4319 12.4473C52.4319 15.3407 52.4319 18.234 52.4319 21.1274V28.4464C52.4319 30.7079 52.7862 33.0462 52.4644 35.2989C51.8739 39.3791 48.0181 42.2105 44.1829 43.0815C43.9496 43.0815 41.9774 43.4298 41.9774 43.3147L41.2807 43.1996L42.2077 42.3847C43.0226 41.5728 43.4861 40.7579 43.4861 39.946C43.4861 39.1341 43.5511 32.4085 43.5334 31.6143C43.5097 30.5633 41.8653 30.2297 41.1478 30.8024C40.7138 31.1479 40.581 31.8564 40.6932 32.376C40.7109 32.4705 40.9884 33.2175 41.0474 33.2086C39.8104 33.3857 38.718 33.2647 37.7585 32.376C36.5273 31.2335 35.9368 29.5122 35.9368 27.8648C35.9499 26.9653 36.179 26.0821 36.605 25.2898C37.031 24.4974 37.6413 23.8191 38.3844 23.3121C39.9314 22.2404 41.5818 22.3585 43.371 22.2877V14.5051C43.371 12.7632 44.5323 11.2536 46.8548 9.97618L66.1399 0.233251C68.4634 4.18061 71.0173 6.27386 73.574 6.389V0.581614H76.4763V6.15575H76.5943C78.5695 6.15575 81.2414 4.06546 84.8404 0C86.3523 1.68106 88.0681 3.16678 89.9481 4.42269C90.211 4.60828 90.5007 4.75267 90.8072 4.85081C91.1822 4.95119 93.5588 4.82129 93.5588 4.15109V4.84786C93.5471 5.39735 93.4698 5.94348 93.3286 6.47463C93.0953 7.1714 92.8621 7.86815 92.2834 8.44977C91.7074 9.16277 90.996 9.75478 90.1902 10.1917V42.1396C90.1991 42.9122 90.4887 43.6552 91.005 44.2299C91.5955 44.8204 92.1653 45.2751 92.9802 45.3902L93.7921 44.2299L96.0005 45.8567L90.4234 54.2209H90.075C84.2676 54.2209 81.3625 50.2705 81.3625 42.2548V30.8585H76.8246V45.4965L77.7546 44.5665L79.7298 46.772L69.9721 54.209C67.5334 51.419 65.0918 50.1407 62.6531 50.1407C61.9512 50.1614 61.2521 50.2394 60.5628 50.3739C59.7509 50.6071 58.936 50.8404 58.006 51.1887C57.7757 50.9555 58.3544 50.0255 58.4725 49.7923C58.936 48.5168 59.7509 47.4717 60.6779 46.4236L61.8412 45.2633C61.9563 45.1481 62.7712 44.7998 62.7712 44.5665V30.8585H58.2393V44.9149C58.2393 45.7268 57.8909 47.0052 57.079 48.3987C55.529 51.0559 53.6453 53.1727 50.5276 53.837C47.4099 54.5013 44.3276 52.9129 41.4194 52.0479C40.082 51.6493 38.8804 51.3688 37.5046 51.7527C36.7576 51.9652 34.3101 53.1078 34.3101 54.0851C34.3101 51.0648 35.122 48.5109 36.6336 46.6509C39.1874 43.5066 44.0559 43.0874 47.6077 44.5636C49.0307 45.1747 50.5542 46.1047 52.0806 45.9512ZM58.7028 7.8652L58.006 7.9833V22.3881H62.538V10.0736C61.7508 9.85982 60.9916 9.5536 60.2764 9.16131C59.8099 8.83359 58.7028 7.86816 58.7028 7.86816V7.8652ZM73.574 44.1089V10.5401C72.8149 10.7644 72.0374 10.9205 71.2505 11.0066H71.1324V43.2999C71.1324 43.2999 73.4559 44.1118 73.574 44.1118V44.1089ZM76.5943 22.2611H81.1233V10.5283C79.7243 10.3287 78.4454 9.62785 77.5244 8.55605C77.2925 8.92994 76.9733 9.242 76.5943 9.46542V22.2611Z" fill="white"/>
</svg>
