<svg width="46" height="56" viewBox="0 0 46 56" fill="none" xmlns="http://www.w3.org/2000/svg">
<g clip-path="url(#clip0_18_1028)">
<path d="M44.624 27.2926L23.5953 5.75293L28.13 1.09735C28.2482 0.975992 28.3143 0.813286 28.3143 0.643887C28.3143 0.474488 28.2482 0.311781 28.13 0.190421C28.0076 0.0743238 27.8453 0.00960504 27.6765 0.00960504C27.5078 0.00960504 27.3455 0.0743238 27.2231 0.190421L22.6884 4.82484L18.1537 0.190421C18.0295 0.0719553 17.8644 0.00585938 17.6927 0.00585938C17.5211 0.00585938 17.356 0.0719553 17.2317 0.190421C17.1149 0.312506 17.0497 0.47494 17.0497 0.643887C17.0497 0.812834 17.1149 0.975268 17.2317 1.09735L21.7664 5.75293L0.737638 27.2926L0 28L0.819268 28.7285L21.7815 50.1926L17.1924 54.8935C17.1324 54.9544 17.0851 55.0267 17.0534 55.1061C17.0218 55.1856 17.0063 55.2705 17.008 55.356C17.0077 55.4415 17.0249 55.5262 17.0587 55.6047C17.0925 55.6833 17.1421 55.754 17.2045 55.8125C17.3258 55.9307 17.4885 55.9968 17.6579 55.9968C17.8273 55.9968 17.9901 55.9307 18.1114 55.8125L22.6793 51.1328L27.2472 55.8095C27.3686 55.9277 27.5313 55.9938 27.7007 55.9938C27.8701 55.9938 28.0328 55.9277 28.1542 55.8095C28.2717 55.6878 28.3373 55.5252 28.3373 55.356C28.3373 55.1869 28.2717 55.0243 28.1542 54.9026L23.5681 50.2016L44.5273 28.7376L45.3163 28.009L44.624 27.2926ZM6.92593 28.7074C7.09831 28.7074 7.26364 28.6389 7.38554 28.517C7.50743 28.3951 7.5759 28.2298 7.5759 28.0574C7.5759 27.885 7.50743 27.7197 7.38554 27.5978C7.26364 27.4759 7.09831 27.4074 6.92593 27.4074H2.45173L22.6884 6.68103L42.9281 27.4104H38.4539C38.2815 27.4104 38.1162 27.4789 37.9943 27.6008C37.8724 27.7227 37.8039 27.888 37.8039 28.0604C37.8039 28.2328 37.8724 28.3981 37.9943 28.52C38.1162 28.6419 38.2815 28.7104 38.4539 28.7104H42.7588L22.6914 49.2675L2.62405 28.7104L6.92593 28.7074Z" fill="white"/>
<path d="M22.673 23.151C22.7582 23.151 22.8426 23.1341 22.9213 23.1014C22.9999 23.0687 23.0714 23.0208 23.1315 22.9604C23.1916 22.9 23.2392 22.8283 23.2715 22.7495C23.3039 22.6707 23.3203 22.5862 23.3199 22.501V18.4651C23.326 18.3763 23.3137 18.2871 23.2839 18.2031C23.254 18.1192 23.2073 18.0423 23.1465 17.9772C23.0856 17.9121 23.0121 17.8602 22.9304 17.8247C22.8487 17.7892 22.7605 17.7709 22.6715 17.7709C22.5824 17.7709 22.4942 17.7892 22.4125 17.8247C22.3308 17.8602 22.2573 17.9121 22.1965 17.9772C22.1356 18.0423 22.0889 18.1192 22.059 18.2031C22.0292 18.2871 22.0169 18.3763 22.023 18.4651V22.501C22.023 22.6734 22.0915 22.8387 22.2134 22.9606C22.3353 23.0825 22.5006 23.151 22.673 23.151Z" fill="white"/>
<path d="M23.3322 39.2671V33.5625C23.3299 33.4451 23.2955 33.3305 23.2326 33.2314C23.1697 33.1322 23.0807 33.0522 22.9755 33.0002C27.6794 32.8249 31.3646 28.6983 31.5218 28.5169L31.682 28.3325C31.7419 28.265 31.775 28.1779 31.775 28.0876C31.775 27.9974 31.7419 27.9103 31.682 27.8428L31.5218 27.6614C30.5239 26.5787 29.3815 25.6387 28.1268 24.868C27.9364 24.7501 27.7429 24.6353 27.5403 24.5264C27.0764 24.2688 26.5956 24.0425 26.1014 23.8492C25.926 23.7827 25.7477 23.7253 25.533 23.6558C23.6818 23.0119 21.6675 23.0119 19.8163 23.6558H19.7921C19.6138 23.7162 19.4354 23.7737 19.2631 23.8402C18.7688 24.0334 18.288 24.2596 17.8241 24.5174C17.6216 24.6292 17.4281 24.7441 17.2195 24.859C15.9649 25.6297 14.8224 26.5696 13.8245 27.6523L13.6643 27.8337C13.6044 27.9012 13.5713 27.9883 13.5713 28.0786C13.5713 28.1688 13.6044 28.256 13.6643 28.3235L13.8245 28.5109C13.9817 28.6892 17.6699 32.8158 22.3708 32.9911C22.2678 33.0448 22.1813 33.1255 22.1206 33.2245C22.0599 33.3236 22.0273 33.4373 22.0262 33.5534V39.258C22.0201 39.3469 22.0324 39.4361 22.0622 39.52C22.0921 39.604 22.1389 39.6809 22.1997 39.746C22.2605 39.8111 22.334 39.863 22.4157 39.8985C22.4974 39.934 22.5856 39.9523 22.6747 39.9523C22.7638 39.9523 22.8519 39.934 22.9336 39.8985C23.0153 39.863 23.0889 39.8111 23.1497 39.746C23.2105 39.6809 23.2573 39.604 23.2871 39.52C23.3169 39.4361 23.3292 39.3469 23.3231 39.258L23.3322 39.2671ZM22.6732 28.5532C24.2814 28.5532 25.657 27.2351 26.1497 25.3003C26.4218 25.4243 26.6909 25.5603 26.9539 25.7085C26.7972 26.7319 26.2792 27.6654 25.4936 28.3398C24.7081 29.0143 23.707 29.3851 22.6716 29.3851C21.6363 29.3851 20.6352 29.0143 19.8496 28.3398C19.0641 27.6654 18.5461 26.7319 18.3894 25.7085C18.6524 25.5633 18.9215 25.4273 19.1936 25.3034C19.6984 27.2351 21.0739 28.5532 22.6732 28.5532ZM22.6732 30.6905C23.9288 30.701 25.1516 30.2895 26.1454 29.522C27.1393 28.7546 27.8466 27.6756 28.154 26.4582C28.8549 26.9484 29.516 27.4933 30.1311 28.0876C29.1184 29.0762 26.1014 31.7154 22.6732 31.7154C19.245 31.7154 16.2279 29.0792 15.2152 28.0876C15.8277 27.4907 16.4879 26.9447 17.1892 26.4552C17.4962 27.6737 18.2038 28.7537 19.1983 29.5218C20.1928 30.2899 21.4166 30.7015 22.6732 30.6905ZM22.6732 27.2563C21.6302 27.2563 20.7202 26.2496 20.4119 24.8378C21.8852 24.3569 23.4732 24.3569 24.9465 24.8378C24.6382 26.2496 23.7252 27.2563 22.6732 27.2563Z" fill="white"/>
</g>
<defs>
<clipPath id="clip0_18_1028">
<rect width="45.3466" height="56" fill="white"/>
</clipPath>
</defs>
</svg>
